<svg xmlns="http://www.w3.org/2000/svg" width="64" height="64" viewBox="0 0 64 64">
  <g fill="none" fill-rule="evenodd" transform="translate(1 1)">
    <circle cx="31" cy="31" r="31" stroke="#FFF" stroke-width="2"/>
    <g transform="translate(12 12)">
      <rect width="38" height="38"/>
      <g transform="translate(0 2.672)">
        <path fill="#FFF" d="M26.3853594,0.28025 C25.8064531,-0.010984375 25.3332344,0.283515625 25.3332344,0.9345625 L25.3332344,26.8294844 L35.8954531,32.1426562 C37.0577188,32.7272031 38,32.3181094 38,31.2285781 L38,6.29226562 C38,6.1880625 37.9412188,6.09246875 37.8485938,6.0455625 L26.3853594,0.28025"/>
        <path fill="#F1F1F1" d="M12.6667656,20.4579531 L24.716625,0.7588125 C25.0556562,0.20425 25.80675,-0.010984375 26.3853594,0.28025 L37.8616562,6.05239063 C37.9361719,6.09009375 37.9625937,6.18360938 37.9189531,6.25485938 L25.3332344,26.8291875 L12.6667656,20.4579531"/>
        <path fill="#E2E0E0" d="M1.02748437,1.43064062 L12.6667656,20.4576562 L25.3332344,26.8288906 L12.6940781,6.16639062 C12.6762656,6.13729687 12.6504375,6.11384375 12.6198594,6.09840625 L1.75364062,0.6329375 C0.788796875,0.147546875 0.462234375,0.50646875 1.02748437,1.43064062 Z"/>
        <path fill="#D0D0D0" d="M12.6667656,31.2282812 C12.6667656,32.3130625 11.877375,32.8037969 10.913125,32.3187031 L1.052125,27.3585156 C0.473515625,27.0672812 0,26.2965937 0,25.6455469 L0,1.3288125 C0,0.46075 0.631453125,0.06828125 1.40303125,0.45659375 L12.5984844,6.08771875 C12.6403437,6.10879687 12.6667656,6.15154687 12.6667656,6.19845312 L12.6667656,31.2282812"/>
      </g>
    </g>
  </g>
</svg>
