<?xml version="1.0" encoding="UTF-8" standalone="no"?>
<svg width="64px" height="64px" viewBox="0 0 64 64" version="1.1" xmlns="http://www.w3.org/2000/svg" xmlns:xlink="http://www.w3.org/1999/xlink">
    <!-- Generator: Sketch 3.8.3 (29802) - http://www.bohemiancoding.com/sketch -->
    <title>Group 6</title>
    <desc>Created with Sketch.</desc>
    <defs></defs>
    <g id="Page-1" stroke="none" stroke-width="1" fill="none" fill-rule="evenodd">
        <g id="Desktop-HD" transform="translate(-538.000000, -457.000000)">
            <g id="Group-6" transform="translate(539.000000, 458.000000)">
                <circle id="Oval-145" stroke="#FFFFFF" stroke-width="2" cx="31" cy="31" r="31"></circle>
                <g id="facebook25" fill="#000000" transform="translate(20.000000, 10.000000)">
                    <path d="M14.3380645,15.1487097 L14.3380645,11.4167742 C14.3380645,10.8564516 14.363871,10.4225806 14.4164516,10.116129 C14.4687097,9.80903226 14.5874194,9.50709677 14.7716129,9.20903226 C14.9554839,8.91129032 15.2535484,8.70548387 15.6651613,8.5916129 C16.0770968,8.47741935 16.6248387,8.42064516 17.3083871,8.42064516 L21.04,8.42064516 L21.04,0.956774194 L15.0741935,0.956774194 C11.6219355,0.956774194 9.14290323,1.77580645 7.63612903,3.41387097 C6.12935484,5.05225806 5.37612903,7.46548387 5.37612903,10.6545161 L5.37612903,15.1487097 L0.907741935,15.1487097 L0.907741935,22.6129032 L5.37580645,22.6129032 L5.37580645,44.2690323 L14.3380645,44.2690323 L14.3380645,22.6129032 L20.303871,22.6129032 L21.0922581,15.1487097 L14.3380645,15.1487097 L14.3380645,15.1487097 Z" id="Shape" fill="#FFFFFF"></path>
                </g>
            </g>
        </g>
    </g>
</svg>