<?xml version="1.0" encoding="UTF-8" standalone="no"?>
<svg width="64px" height="64px" viewBox="0 0 64 64" version="1.1" xmlns="http://www.w3.org/2000/svg" xmlns:xlink="http://www.w3.org/1999/xlink">
    <!-- Generator: Sketch 3.8.3 (29802) - http://www.bohemiancoding.com/sketch -->
    <title>Group 7</title>
    <desc>Created with Sketch.</desc>
    <defs></defs>
    <g id="Page-1" stroke="none" stroke-width="1" fill="none" fill-rule="evenodd">
        <g id="Desktop-HD" transform="translate(-638.000000, -457.000000)">
            <g id="Group-7" transform="translate(639.000000, 458.000000)">
                <circle id="Oval-145" stroke="#FFFFFF" stroke-width="2" cx="31" cy="31" r="31"></circle>
                <g id="twitter16" fill="#000000" transform="translate(12.000000, 16.000000)">
                    <path d="M39.0596719,4.63404687 C37.5601563,5.27915625 36.0600469,5.68201562 34.561125,5.8438125 C36.2542031,4.82790625 37.39925,3.3928125 37.9959688,1.53853125 C36.4474688,2.45735937 34.7947656,3.08614062 33.0372656,3.424875 C31.4890625,1.7801875 29.5866875,0.957546875 27.3289531,0.957546875 C25.1682969,0.957546875 23.3261875,1.71932812 21.8020313,3.2431875 C20.2781719,4.76704687 19.5163906,6.60915625 19.5163906,8.7698125 C19.5163906,9.35020312 19.5808125,9.94692187 19.7099531,10.5596719 C16.5170625,10.3984687 13.5218906,9.5963125 10.7241406,8.15320312 C7.92639063,6.70979687 5.55198438,4.7869375 3.60092188,2.38432812 C2.89139063,3.5935 2.536625,4.90776562 2.536625,6.32682812 C2.536625,7.66514062 2.85101563,8.90696875 3.48009375,10.0517187 C4.108875,11.1964687 4.9555625,12.1236094 6.01985938,12.8331406 C4.762,12.78475 3.58489063,12.4540312 2.48853125,11.8412812 L2.48853125,11.9380625 C2.48853125,13.8247031 3.08109375,15.4812656 4.26621875,16.9086406 C5.45134375,18.3360156 6.947,19.2346562 8.75289063,19.6054531 C8.07571875,19.7826875 7.39023438,19.8714531 6.69703125,19.8714531 C6.24548438,19.8714531 5.7535625,19.8310781 5.2215625,19.7509219 C5.7215,21.3148594 6.640625,22.600625 7.9789375,23.6085156 C9.31725,24.6167031 10.8330938,25.1362344 12.5261719,25.1688906 C9.68834375,27.3936719 6.455375,28.5063594 2.82726563,28.5063594 C2.13376563,28.5063594 1.50498438,28.4745938 0.940625,28.409875 C4.56873438,30.7477656 8.56764063,31.9165625 12.9376406,31.9165625 C15.7110469,31.9165625 18.3152344,31.4774844 20.7496094,30.5987344 C23.184875,29.7199844 25.2647813,28.542875 26.9902188,27.0671094 C28.7153594,25.5919375 30.203,23.8947031 31.4525469,21.9757031 C32.7020938,20.057 33.6330938,18.0536875 34.2461406,15.9654687 C34.8588906,13.8769531 35.1652656,11.7851719 35.1652656,9.68864062 C35.1652656,9.23709375 35.15725,8.89865625 35.1409219,8.67273437 C36.6730938,7.56064062 37.9793438,6.21401562 39.0596719,4.63404687 L39.0596719,4.63404687 Z" id="Shape" fill="#FFFFFF"></path>
                </g>
            </g>
        </g>
    </g>
</svg>