<?xml version="1.0" encoding="UTF-8" standalone="no"?>
<svg width="64px" height="64px" viewBox="0 0 64 64" version="1.1" xmlns="http://www.w3.org/2000/svg" xmlns:xlink="http://www.w3.org/1999/xlink">
    <!-- Generator: Sketch 3.8.3 (29802) - http://www.bohemiancoding.com/sketch -->
    <title>Group 8</title>
    <desc>Created with Sketch.</desc>
    <defs></defs>
    <g id="Page-1" stroke="none" stroke-width="1" fill="none" fill-rule="evenodd">
        <g id="Desktop-HD" transform="translate(-738.000000, -457.000000)">
            <g id="Group-8" transform="translate(739.000000, 458.000000)">
                <circle id="Oval-145" stroke="#FFFFFF" stroke-width="2" cx="31" cy="31" r="31"></circle>
                <g id="dribbble4" fill="#000000" transform="translate(10.000000, 10.000000)">
                    <path d="M39.06,10.5306667 C37.195,7.33533333 34.665,4.80533333 31.4696667,2.94033333 C28.2736667,1.07533333 24.7846667,0.143 21.0003333,0.143 C17.2163333,0.143 13.7263333,1.07533333 10.531,2.94033333 C7.33533333,4.805 4.80533333,7.335 2.94033333,10.5306667 C1.075,13.7263333 0.142666667,17.2163333 0.142666667,21 C0.142666667,24.784 1.07533333,28.2733333 2.94,31.4693333 C4.805,34.6643333 7.335,37.1946667 10.5306667,39.0596667 C13.7263333,40.9246667 17.216,41.857 21,41.857 C24.784,41.857 28.274,40.9246667 31.4693333,39.0596667 C34.6646667,37.195 37.1946667,34.6646667 39.0596667,31.4693333 C40.9243333,28.2736667 41.8566667,24.7836667 41.8566667,21 C41.8566667,17.216 40.9243333,13.726 39.06,10.5306667 L39.06,10.5306667 Z M21,3.18466667 C25.4896667,3.18466667 29.4096667,4.66933333 32.759,7.63833333 L32.4196667,8.11333333 C32.2836667,8.30366667 31.9443333,8.67 31.401,9.21333333 C30.858,9.75633333 30.265,10.2726667 29.6223333,10.7613333 C28.9793333,11.2503333 28.1063333,11.807 27.0016667,12.4316667 C25.897,13.0563333 24.7203333,13.6043333 23.471,14.075 C21.389,10.2363333 19.1623333,6.77833333 16.7903333,3.70066667 C18.221,3.35666667 19.624,3.18466667 21,3.18466667 L21,3.18466667 Z M7.04133333,9.94633333 C8.77933333,7.756 10.8973333,6.072 13.396,4.89533333 C15.641,7.88266667 17.8496667,11.3046667 20.0223333,15.161 C14.5183333,16.6093333 9.03266667,17.3336667 3.565,17.3333333 C4.14466667,14.5996667 5.30333333,12.137 7.04133333,9.94633333 L7.04133333,9.94633333 Z M4.37933333,27.4233333 C3.58266667,25.3863333 3.18433333,23.2453333 3.18433333,21 C3.18433333,20.7463333 3.19366667,20.5563333 3.21166667,20.4296667 C9.766,20.4296667 15.8583333,19.588 21.489,17.904 C22.0683333,19.0263333 22.5483333,20.0313333 22.9283333,20.9186667 C22.8553333,20.9546667 22.7386667,20.9953333 22.5753333,21.0406667 C22.412,21.086 22.2943333,21.1173333 22.2216667,21.1356667 L21.217,21.489 C20.5286667,21.7423333 19.6276667,22.1766667 18.5146667,22.7923333 C17.4013333,23.4083333 16.22,24.1413333 14.9706667,24.9923333 C13.7213333,25.8436667 12.4313333,26.9706667 11.1006667,28.374 C9.77,29.777 8.652,31.284 7.74666667,32.8953333 C6.29833333,31.284 5.176,29.4596667 4.37933333,27.4233333 L4.37933333,27.4233333 Z M21,38.8156667 C16.7633333,38.8156667 12.9793333,37.4576667 9.648,34.742 L10.0553333,35.0406667 C10.689,33.6463333 11.6213333,32.3066667 12.8526667,31.0213333 C14.084,29.736 15.2696667,28.699 16.4103333,27.9113333 C17.551,27.124 18.791,26.382 20.131,25.6843333 C21.4706667,24.9873333 22.3846667,24.5436667 22.8736667,24.354 C23.3626667,24.1636667 23.752,24.014 24.0416667,23.9056667 L24.096,23.8783333 L24.1503333,23.8783333 C25.9243333,28.5313333 27.192,33.0396667 27.9523333,37.403 C25.7073333,38.3446667 23.39,38.8153333 21,38.8156667 L21,38.8156667 Z M35.9916667,30.6276667 C34.6516667,32.7006667 32.9766667,34.4163333 30.9676667,35.774 C30.2246667,31.61 29.0666667,27.364 27.491,23.037 C31.094,22.4753333 34.7963333,22.738 38.5983333,23.824 C38.2,26.2863333 37.331,28.5543333 35.9916667,30.6276667 L35.9916667,30.6276667 Z M38.5436667,20.7556667 C38.3626667,20.7196667 38.1363333,20.6786667 37.8646667,20.6336667 C37.5933333,20.5886667 37.2626667,20.534 36.8733333,20.4706667 C36.4843333,20.4073333 36.0493333,20.3486667 35.5696667,20.2943333 C35.09,20.24 34.5786667,20.1903333 34.035,20.145 C33.492,20.0996667 32.9126667,20.0636667 32.2973333,20.0363333 C31.681,20.0093333 31.0566667,19.9956667 30.423,19.9956667 C29.7896667,19.9956667 29.124,20.014 28.4273333,20.05 C27.7303333,20.0856667 27.056,20.1496667 26.4043333,20.24 C26.3496667,20.1493333 26.282,20 26.2006667,19.7916667 C26.1193333,19.5836667 26.06,19.425 26.0246667,19.3163333 C25.6803333,18.556 25.282,17.696 24.829,16.7366667 C26.0783333,16.2293333 27.269,15.6456667 28.401,14.9846667 C29.5323333,14.3236667 30.437,13.7356667 31.1163333,13.2196667 C31.7953333,12.7033333 32.438,12.1556667 33.0446667,11.5763333 C33.651,10.997 34.0446667,10.5943333 34.226,10.368 C34.4073333,10.1413333 34.5793333,9.91966667 34.742,9.70266667 L34.7693333,9.67533333 C37.4126667,12.898 38.762,16.6093333 38.8156667,20.81 L38.5436667,20.7556667 L38.5436667,20.7556667 Z" id="Shape" fill="#FFFFFF"></path>
                </g>
            </g>
        </g>
    </g>
</svg>