<?xml version="1.0" encoding="UTF-8" standalone="no"?>
<svg width="64px" height="64px" viewBox="0 0 64 64" version="1.1" xmlns="http://www.w3.org/2000/svg" xmlns:xlink="http://www.w3.org/1999/xlink">
    <!-- Generator: Sketch 3.8.3 (29802) - http://www.bohemiancoding.com/sketch -->
    <title>Group 9</title>
    <desc>Created with Sketch.</desc>
    <defs></defs>
    <g id="Page-1" stroke="none" stroke-width="1" fill="none" fill-rule="evenodd">
        <g id="Desktop-HD" transform="translate(-838.000000, -457.000000)">
            <g id="Group-9" transform="translate(839.000000, 458.000000)">
                <circle id="Oval-145" stroke="#FFFFFF" stroke-width="2" cx="31" cy="31" r="31"></circle>
                <g id="flickr8" fill="#000000" transform="translate(11.000000, 22.000000)">
                    <path d="M14.7541463,14.7419512 C13.1112195,16.384878 11.1243902,17.2068293 8.79268293,17.2068293 C6.46097561,17.2068293 4.47414634,16.384878 2.83121951,14.7419512 C1.18878049,13.0995122 0.367317073,11.1121951 0.367317073,8.7804878 C0.367317073,6.44829268 1.18829268,4.46146341 2.83121951,2.81902439 C4.47365854,1.17609756 6.46097561,0.354634146 8.79268293,0.354634146 C11.1243902,0.354634146 13.1112195,1.17609756 14.7541463,2.81902439 C16.3965854,4.46146341 17.2180488,6.44829268 17.2180488,8.7804878 C17.2180488,11.1117073 16.3965854,13.0995122 14.7541463,14.7419512 L14.7541463,14.7419512 Z M37.1682927,14.7419512 C35.5263415,16.384878 33.5390244,17.2068293 31.2068293,17.2068293 C28.8756098,17.2068293 26.8878049,16.384878 25.244878,14.7419512 C23.6029268,13.0995122 22.7809756,11.1121951 22.7809756,8.7804878 C22.7809756,6.44829268 23.6029268,4.46146341 25.244878,2.81902439 C26.8878049,1.17609756 28.875122,0.354634146 31.2068293,0.354634146 C33.5385366,0.354634146 35.5258537,1.17609756 37.1682927,2.81902439 C38.8107317,4.46146341 39.6331707,6.44829268 39.6331707,8.7804878 C39.6331707,11.1117073 38.8107317,13.0995122 37.1682927,14.7419512 L37.1682927,14.7419512 Z" id="Shape" fill="#FFFFFF"></path>
                </g>
            </g>
        </g>
    </g>
</svg>